<svg width="1024" height="375" viewBox="0 0 1024 375" fill="none" xmlns="http://www.w3.org/2000/svg">
<g clip-path="url(#clip0_310_7883)">
<rect width="1024" height="375" fill="white"/>
<g clip-path="url(#clip1_310_7883)">
<mask id="mask0_310_7883" style="mask-type:luminance" maskUnits="userSpaceOnUse" x="13" y="1" width="349" height="374">
<path d="M13.2959 1.24999H361.577V375H13.2959V1.24999Z" fill="white"/>
</mask>
<g mask="url(#mask0_310_7883)">
<mask id="mask1_310_7883" style="mask-type:luminance" maskUnits="userSpaceOnUse" x="13" y="1" width="349" height="374">
<path d="M307.119 374.583H200.149C97.4414 374.583 13.7231 290.854 13.7231 188.13C13.7231 85.4053 97.4414 1.28905 200.149 1.28905H307.119C336.965 1.28905 361.382 25.7104 361.382 55.5591C361.382 85.4053 336.965 109.827 307.119 109.827H200.149C157.126 109.827 122.246 144.714 122.246 187.742C122.246 230.771 157.126 265.657 200.149 265.657H307.119C336.965 265.657 361.382 290.078 361.382 319.927C361.382 349.773 337.351 374.583 307.119 374.583Z" fill="white"/>
</mask>
<g mask="url(#mask1_310_7883)">
<path d="M13.7231 1.28905V374.583H361.382V1.28905H13.7231Z" fill="url(#paint0_linear_310_7883)"/>
</g>
</g>
<mask id="mask2_310_7883" style="mask-type:luminance" maskUnits="userSpaceOnUse" x="180" y="133" width="182" height="242">
<path d="M180.625 133.125H361.577V375H180.625V133.125Z" fill="white"/>
</mask>
<g mask="url(#mask2_310_7883)">
<mask id="mask3_310_7883" style="mask-type:luminance" maskUnits="userSpaceOnUse" x="181" y="133" width="181" height="242">
<path d="M307.119 374.583C277.278 374.583 252.859 350.161 252.859 320.315V242.009H235.417C205.576 242.009 181.157 217.59 181.157 187.742C181.157 157.893 205.576 133.474 235.417 133.474H307.119C336.965 133.474 361.382 157.893 361.382 187.742V319.927C361.382 350.161 337.351 374.583 307.119 374.583Z" fill="white"/>
</mask>
<g mask="url(#mask3_310_7883)">
<path d="M181.157 133.474V374.583H361.382V133.474H181.157Z" fill="url(#paint1_linear_310_7883)"/>
</g>
</g>
</g>
<path d="M393 238C393 223.667 395.667 211.083 401 200.25C406.5 189.417 413.917 181.083 423.25 175.25C432.583 169.417 443 166.5 454.5 166.5C464.333 166.5 472.917 168.5 480.25 172.5C487.75 176.5 493.5 181.75 497.5 188.25V168.5H540.25V308H497.5V288.25C493.333 294.75 487.5 300 480 304C472.667 308 464.083 310 454.25 310C442.917 310 432.583 307.083 423.25 301.25C413.917 295.25 406.5 286.833 401 276C395.667 265 393 252.333 393 238ZM497.5 238.25C497.5 227.583 494.5 219.167 488.5 213C482.667 206.833 475.5 203.75 467 203.75C458.5 203.75 451.25 206.833 445.25 213C439.417 219 436.5 227.333 436.5 238C436.5 248.667 439.417 257.167 445.25 263.5C451.25 269.667 458.5 272.75 467 272.75C475.5 272.75 482.667 269.667 488.5 263.5C494.5 257.333 497.5 248.917 497.5 238.25ZM627.928 310C615.761 310 604.928 307.917 595.428 303.75C585.928 299.583 578.428 293.917 572.928 286.75C567.428 279.417 564.344 271.25 563.678 262.25H605.928C606.428 267.083 608.678 271 612.678 274C616.678 277 621.594 278.5 627.428 278.5C632.761 278.5 636.844 277.5 639.678 275.5C642.678 273.333 644.178 270.583 644.178 267.25C644.178 263.25 642.094 260.333 637.928 258.5C633.761 256.5 627.011 254.333 617.678 252C607.678 249.667 599.344 247.25 592.678 244.75C586.011 242.083 580.261 238 575.428 232.5C570.594 226.833 568.178 219.25 568.178 209.75C568.178 201.75 570.344 194.5 574.678 188C579.178 181.333 585.678 176.083 594.178 172.25C602.844 168.417 613.094 166.5 624.928 166.5C642.428 166.5 656.178 170.833 666.178 179.5C676.344 188.167 682.178 199.667 683.678 214H644.178C643.511 209.167 641.344 205.333 637.678 202.5C634.178 199.667 629.511 198.25 623.678 198.25C618.678 198.25 614.844 199.25 612.178 201.25C609.511 203.083 608.178 205.667 608.178 209C608.178 213 610.261 216 614.428 218C618.761 220 625.428 222 634.428 224C644.761 226.667 653.178 229.333 659.678 232C666.178 234.5 671.844 238.667 676.678 244.5C681.678 250.167 684.261 257.833 684.428 267.5C684.428 275.667 682.094 283 677.428 289.5C672.928 295.833 666.344 300.833 657.678 304.5C649.178 308.167 639.261 310 627.928 310ZM763.582 166.5C773.415 166.5 781.999 168.5 789.332 172.5C796.832 176.5 802.582 181.75 806.582 188.25V168.5H849.332V307.75C849.332 320.583 846.749 332.167 841.582 342.5C836.582 353 828.832 361.333 818.332 367.5C807.999 373.667 795.082 376.75 779.582 376.75C758.915 376.75 742.165 371.833 729.332 362C716.499 352.333 709.165 339.167 707.332 322.5H749.582C750.915 327.833 754.082 332 759.082 335C764.082 338.167 770.249 339.75 777.582 339.75C786.415 339.75 793.415 337.167 798.582 332C803.915 327 806.582 318.917 806.582 307.75V288C802.415 294.5 796.665 299.833 789.332 304C781.999 308 773.415 310 763.582 310C752.082 310 741.665 307.083 732.332 301.25C722.999 295.25 715.582 286.833 710.082 276C704.749 265 702.082 252.333 702.082 238C702.082 223.667 704.749 211.083 710.082 200.25C715.582 189.417 722.999 181.083 732.332 175.25C741.665 169.417 752.082 166.5 763.582 166.5ZM806.582 238.25C806.582 227.583 803.582 219.167 797.582 213C791.749 206.833 784.582 203.75 776.082 203.75C767.582 203.75 760.332 206.833 754.332 213C748.499 219 745.582 227.333 745.582 238C745.582 248.667 748.499 257.167 754.332 263.5C760.332 269.667 767.582 272.75 776.082 272.75C784.582 272.75 791.749 269.667 797.582 263.5C803.582 257.333 806.582 248.917 806.582 238.25ZM943.76 310C930.093 310 917.76 307.083 906.76 301.25C895.926 295.417 887.343 287.083 881.01 276.25C874.843 265.417 871.76 252.75 871.76 238.25C871.76 223.917 874.926 211.333 881.26 200.5C887.593 189.5 896.26 181.083 907.26 175.25C918.26 169.417 930.593 166.5 944.26 166.5C957.926 166.5 970.26 169.417 981.26 175.25C992.26 181.083 1000.93 189.5 1007.26 200.5C1013.59 211.333 1016.76 223.917 1016.76 238.25C1016.76 252.583 1013.51 265.25 1007.01 276.25C1000.68 287.083 991.926 295.417 980.76 301.25C969.76 307.083 957.426 310 943.76 310ZM943.76 273C951.926 273 958.843 270 964.51 264C970.343 258 973.26 249.417 973.26 238.25C973.26 227.083 970.426 218.5 964.76 212.5C959.26 206.5 952.426 203.5 944.26 203.5C935.926 203.5 929.01 206.5 923.51 212.5C918.01 218.333 915.26 226.917 915.26 238.25C915.26 249.417 917.926 258 923.26 264C928.76 270 935.593 273 943.76 273Z" fill="#FA7B3E"/>
</g>
<defs>
<linearGradient id="paint0_linear_310_7883" x1="361.646" y1="374.466" x2="167.422" y2="-66.4201" gradientUnits="userSpaceOnUse">
<stop stop-color="#F37B41"/>
<stop offset="0.0078125" stop-color="#F37B41"/>
<stop offset="0.015625" stop-color="#F37C42"/>
<stop offset="0.0234375" stop-color="#F37D42"/>
<stop offset="0.03125" stop-color="#F37D43"/>
<stop offset="0.0390625" stop-color="#F37E44"/>
<stop offset="0.046875" stop-color="#F47F44"/>
<stop offset="0.0546875" stop-color="#F47F45"/>
<stop offset="0.0625" stop-color="#F48045"/>
<stop offset="0.0703125" stop-color="#F48146"/>
<stop offset="0.078125" stop-color="#F48147"/>
<stop offset="0.0859375" stop-color="#F48247"/>
<stop offset="0.09375" stop-color="#F48348"/>
<stop offset="0.101562" stop-color="#F48448"/>
<stop offset="0.109375" stop-color="#F48449"/>
<stop offset="0.117187" stop-color="#F4854A"/>
<stop offset="0.125" stop-color="#F5864A"/>
<stop offset="0.132812" stop-color="#F5864B"/>
<stop offset="0.140625" stop-color="#F5874B"/>
<stop offset="0.148438" stop-color="#F5884C"/>
<stop offset="0.15625" stop-color="#F5884D"/>
<stop offset="0.164062" stop-color="#F5894D"/>
<stop offset="0.171875" stop-color="#F58A4E"/>
<stop offset="0.179688" stop-color="#F58A4E"/>
<stop offset="0.1875" stop-color="#F58B4F"/>
<stop offset="0.195312" stop-color="#F58C50"/>
<stop offset="0.203125" stop-color="#F58D50"/>
<stop offset="0.210937" stop-color="#F68D51"/>
<stop offset="0.21875" stop-color="#F68E51"/>
<stop offset="0.226562" stop-color="#F68F52"/>
<stop offset="0.234375" stop-color="#F68F52"/>
<stop offset="0.242188" stop-color="#F69053"/>
<stop offset="0.25" stop-color="#F69154"/>
<stop offset="0.257812" stop-color="#F69154"/>
<stop offset="0.265625" stop-color="#F69255"/>
<stop offset="0.273438" stop-color="#F69355"/>
<stop offset="0.28125" stop-color="#F69356"/>
<stop offset="0.289062" stop-color="#F79457"/>
<stop offset="0.29092" stop-color="#F79557"/>
<stop offset="0.296875" stop-color="#F79558"/>
<stop offset="0.304688" stop-color="#F79658"/>
<stop offset="0.3125" stop-color="#F79658"/>
<stop offset="0.320313" stop-color="#F79759"/>
<stop offset="0.328125" stop-color="#F7985A"/>
<stop offset="0.335938" stop-color="#F7985A"/>
<stop offset="0.34375" stop-color="#F7995B"/>
<stop offset="0.351562" stop-color="#F79A5B"/>
<stop offset="0.359375" stop-color="#F79A5C"/>
<stop offset="0.367188" stop-color="#F89B5D"/>
<stop offset="0.375" stop-color="#F89C5D"/>
<stop offset="0.382812" stop-color="#F89C5E"/>
<stop offset="0.390625" stop-color="#F89D5E"/>
<stop offset="0.398438" stop-color="#F89E5F"/>
<stop offset="0.40625" stop-color="#F89F60"/>
<stop offset="0.414063" stop-color="#F89F60"/>
<stop offset="0.421875" stop-color="#F8A061"/>
<stop offset="0.429688" stop-color="#F8A161"/>
<stop offset="0.4375" stop-color="#F8A162"/>
<stop offset="0.445313" stop-color="#F9A263"/>
<stop offset="0.453125" stop-color="#F9A363"/>
<stop offset="0.460938" stop-color="#F9A364"/>
<stop offset="0.46875" stop-color="#F9A464"/>
<stop offset="0.476562" stop-color="#F9A565"/>
<stop offset="0.484375" stop-color="#F9A565"/>
<stop offset="0.492188" stop-color="#F9A666"/>
<stop offset="0.5" stop-color="#F9A767"/>
<stop offset="0.507813" stop-color="#F9A867"/>
<stop offset="0.515625" stop-color="#F9A868"/>
<stop offset="0.523438" stop-color="#F9A968"/>
<stop offset="0.53125" stop-color="#FAAA69"/>
<stop offset="0.539063" stop-color="#FAAA6A"/>
<stop offset="0.546875" stop-color="#FAAB6A"/>
<stop offset="0.554688" stop-color="#FAAC6B"/>
<stop offset="0.5625" stop-color="#FAAC6B"/>
<stop offset="0.570312" stop-color="#FAAD6C"/>
<stop offset="0.578125" stop-color="#FAAE6D"/>
<stop offset="0.585938" stop-color="#FAAE6D"/>
<stop offset="0.59375" stop-color="#FAAF6E"/>
<stop offset="0.601563" stop-color="#FAB06E"/>
<stop offset="0.609375" stop-color="#FBB16F"/>
<stop offset="0.617188" stop-color="#FBB170"/>
<stop offset="0.625" stop-color="#FBB270"/>
<stop offset="0.632813" stop-color="#FBB371"/>
<stop offset="0.640625" stop-color="#FBB371"/>
<stop offset="0.648438" stop-color="#FBB472"/>
<stop offset="0.65625" stop-color="#FBB573"/>
<stop offset="0.664062" stop-color="#FBB573"/>
<stop offset="0.671875" stop-color="#FBB674"/>
<stop offset="0.679688" stop-color="#FBB774"/>
<stop offset="0.6875" stop-color="#FCB775"/>
<stop offset="0.695313" stop-color="#FCB875"/>
<stop offset="0.703125" stop-color="#FCB976"/>
<stop offset="0.70908" stop-color="#FCBA77"/>
<stop offset="0.710938" stop-color="#FCBA77"/>
<stop offset="0.71875" stop-color="#FCBA77"/>
<stop offset="0.726563" stop-color="#FCBB78"/>
<stop offset="0.734375" stop-color="#FCBC78"/>
<stop offset="0.742188" stop-color="#FCBC79"/>
<stop offset="0.75" stop-color="#FCBD7A"/>
<stop offset="0.757812" stop-color="#FCBE7A"/>
<stop offset="0.765625" stop-color="#FDBE7B"/>
<stop offset="0.773438" stop-color="#FDBF7B"/>
<stop offset="0.78125" stop-color="#FDC07C"/>
<stop offset="0.789063" stop-color="#FDC07D"/>
<stop offset="0.796875" stop-color="#FDC17D"/>
<stop offset="0.804688" stop-color="#FDC27E"/>
<stop offset="0.8125" stop-color="#FDC37E"/>
<stop offset="0.820313" stop-color="#FDC37F"/>
<stop offset="0.828125" stop-color="#FDC480"/>
<stop offset="0.835938" stop-color="#FDC580"/>
<stop offset="0.84375" stop-color="#FDC581"/>
<stop offset="0.851562" stop-color="#FEC681"/>
<stop offset="0.859375" stop-color="#FEC782"/>
<stop offset="0.867188" stop-color="#FEC783"/>
<stop offset="0.875" stop-color="#FEC883"/>
<stop offset="0.882813" stop-color="#FEC984"/>
<stop offset="0.890625" stop-color="#FECA84"/>
<stop offset="0.898438" stop-color="#FECA85"/>
<stop offset="0.90625" stop-color="#FECB86"/>
<stop offset="0.914063" stop-color="#FECC86"/>
<stop offset="0.921875" stop-color="#FECC87"/>
<stop offset="0.929688" stop-color="#FFCD87"/>
<stop offset="0.9375" stop-color="#FFCE88"/>
<stop offset="0.945312" stop-color="#FFCE88"/>
<stop offset="0.953125" stop-color="#FFCF89"/>
<stop offset="0.96875" stop-color="#FFD08A"/>
<stop offset="1" stop-color="#FFD08A"/>
</linearGradient>
<linearGradient id="paint1_linear_310_7883" x1="148.382" y1="249.053" x2="378.476" y2="314.301" gradientUnits="userSpaceOnUse">
<stop stop-color="#F37B41"/>
<stop offset="0.03125" stop-color="#F37B41"/>
<stop offset="0.046875" stop-color="#F37B41"/>
<stop offset="0.0546875" stop-color="#F37C42"/>
<stop offset="0.0625" stop-color="#F37C42"/>
<stop offset="0.0703125" stop-color="#F37D43"/>
<stop offset="0.078125" stop-color="#F37E43"/>
<stop offset="0.0859375" stop-color="#F37E44"/>
<stop offset="0.09375" stop-color="#F47F45"/>
<stop offset="0.101563" stop-color="#F48045"/>
<stop offset="0.109375" stop-color="#F48046"/>
<stop offset="0.117188" stop-color="#F48146"/>
<stop offset="0.125" stop-color="#F48247"/>
<stop offset="0.132812" stop-color="#F48348"/>
<stop offset="0.140625" stop-color="#F48348"/>
<stop offset="0.148438" stop-color="#F48449"/>
<stop offset="0.15625" stop-color="#F48549"/>
<stop offset="0.164062" stop-color="#F4854A"/>
<stop offset="0.171875" stop-color="#F5864B"/>
<stop offset="0.179688" stop-color="#F5874B"/>
<stop offset="0.1875" stop-color="#F5874C"/>
<stop offset="0.195313" stop-color="#F5884C"/>
<stop offset="0.203125" stop-color="#F5894D"/>
<stop offset="0.210938" stop-color="#F5894E"/>
<stop offset="0.21875" stop-color="#F58A4E"/>
<stop offset="0.226563" stop-color="#F58B4F"/>
<stop offset="0.234375" stop-color="#F58C4F"/>
<stop offset="0.242188" stop-color="#F58C50"/>
<stop offset="0.25" stop-color="#F68D50"/>
<stop offset="0.257813" stop-color="#F68E51"/>
<stop offset="0.265625" stop-color="#F68E52"/>
<stop offset="0.273438" stop-color="#F68F52"/>
<stop offset="0.275031" stop-color="#F69053"/>
<stop offset="0.28125" stop-color="#F69053"/>
<stop offset="0.289062" stop-color="#F69053"/>
<stop offset="0.296875" stop-color="#F69154"/>
<stop offset="0.304688" stop-color="#F69255"/>
<stop offset="0.3125" stop-color="#F69355"/>
<stop offset="0.320312" stop-color="#F69356"/>
<stop offset="0.328125" stop-color="#F79456"/>
<stop offset="0.335938" stop-color="#F79557"/>
<stop offset="0.34375" stop-color="#F79558"/>
<stop offset="0.351562" stop-color="#F79658"/>
<stop offset="0.359375" stop-color="#F79759"/>
<stop offset="0.367188" stop-color="#F79759"/>
<stop offset="0.375" stop-color="#F7985A"/>
<stop offset="0.382812" stop-color="#F7995B"/>
<stop offset="0.390625" stop-color="#F79A5B"/>
<stop offset="0.398438" stop-color="#F79A5C"/>
<stop offset="0.40625" stop-color="#F89B5C"/>
<stop offset="0.414062" stop-color="#F89C5D"/>
<stop offset="0.421875" stop-color="#F89C5E"/>
<stop offset="0.429688" stop-color="#F89D5E"/>
<stop offset="0.4375" stop-color="#F89E5F"/>
<stop offset="0.445312" stop-color="#F89E5F"/>
<stop offset="0.453125" stop-color="#F89F60"/>
<stop offset="0.460938" stop-color="#F8A061"/>
<stop offset="0.46875" stop-color="#F8A061"/>
<stop offset="0.476562" stop-color="#F8A162"/>
<stop offset="0.484375" stop-color="#F8A262"/>
<stop offset="0.492188" stop-color="#F9A363"/>
<stop offset="0.5" stop-color="#F9A364"/>
<stop offset="0.507812" stop-color="#F9A464"/>
<stop offset="0.515625" stop-color="#F9A565"/>
<stop offset="0.523438" stop-color="#F9A565"/>
<stop offset="0.53125" stop-color="#F9A666"/>
<stop offset="0.539062" stop-color="#F9A767"/>
<stop offset="0.546875" stop-color="#F9A767"/>
<stop offset="0.554687" stop-color="#F9A868"/>
<stop offset="0.5625" stop-color="#F9A968"/>
<stop offset="0.570312" stop-color="#FAAA69"/>
<stop offset="0.578125" stop-color="#FAAA6A"/>
<stop offset="0.585937" stop-color="#FAAB6A"/>
<stop offset="0.59375" stop-color="#FAAC6B"/>
<stop offset="0.601562" stop-color="#FAAC6B"/>
<stop offset="0.609375" stop-color="#FAAD6C"/>
<stop offset="0.617188" stop-color="#FAAE6D"/>
<stop offset="0.625" stop-color="#FAAE6D"/>
<stop offset="0.632812" stop-color="#FAAF6E"/>
<stop offset="0.640625" stop-color="#FAB06E"/>
<stop offset="0.648438" stop-color="#FBB16F"/>
<stop offset="0.65625" stop-color="#FBB170"/>
<stop offset="0.664062" stop-color="#FBB270"/>
<stop offset="0.671875" stop-color="#FBB371"/>
<stop offset="0.679688" stop-color="#FBB371"/>
<stop offset="0.6875" stop-color="#FBB472"/>
<stop offset="0.695312" stop-color="#FBB573"/>
<stop offset="0.703125" stop-color="#FBB573"/>
<stop offset="0.710938" stop-color="#FBB674"/>
<stop offset="0.71875" stop-color="#FBB774"/>
<stop offset="0.724969" stop-color="#FCB875"/>
<stop offset="0.726562" stop-color="#FCB875"/>
<stop offset="0.734375" stop-color="#FCB876"/>
<stop offset="0.742188" stop-color="#FCB976"/>
<stop offset="0.75" stop-color="#FCBA77"/>
<stop offset="0.757812" stop-color="#FCBA77"/>
<stop offset="0.765625" stop-color="#FCBB78"/>
<stop offset="0.773438" stop-color="#FCBC79"/>
<stop offset="0.78125" stop-color="#FCBC79"/>
<stop offset="0.789062" stop-color="#FCBD7A"/>
<stop offset="0.796875" stop-color="#FCBE7A"/>
<stop offset="0.804688" stop-color="#FDBE7B"/>
<stop offset="0.8125" stop-color="#FDBF7B"/>
<stop offset="0.820312" stop-color="#FDC07C"/>
<stop offset="0.828125" stop-color="#FDC17D"/>
<stop offset="0.835938" stop-color="#FDC17D"/>
<stop offset="0.84375" stop-color="#FDC27E"/>
<stop offset="0.851562" stop-color="#FDC37E"/>
<stop offset="0.859375" stop-color="#FDC37F"/>
<stop offset="0.867188" stop-color="#FDC480"/>
<stop offset="0.875" stop-color="#FDC580"/>
<stop offset="0.882812" stop-color="#FEC581"/>
<stop offset="0.890625" stop-color="#FEC681"/>
<stop offset="0.898438" stop-color="#FEC782"/>
<stop offset="0.90625" stop-color="#FEC883"/>
<stop offset="0.914062" stop-color="#FEC883"/>
<stop offset="0.921875" stop-color="#FEC984"/>
<stop offset="0.929688" stop-color="#FECA84"/>
<stop offset="0.9375" stop-color="#FECA85"/>
<stop offset="0.945312" stop-color="#FECB86"/>
<stop offset="0.953125" stop-color="#FECC86"/>
<stop offset="0.960938" stop-color="#FECC87"/>
<stop offset="0.96875" stop-color="#FFCD87"/>
<stop offset="0.976562" stop-color="#FFCE88"/>
<stop offset="0.984375" stop-color="#FFCF89"/>
<stop offset="0.992188" stop-color="#FFCF89"/>
<stop offset="1" stop-color="#FFD08A"/>
</linearGradient>
<clipPath id="clip0_310_7883">
<rect width="1024" height="375" fill="white"/>
</clipPath>
<clipPath id="clip1_310_7883">
<rect width="375" height="375" fill="white"/>
</clipPath>
</defs>
</svg>
